<svg preserveAspectRatio="none" overflow="visible" style="display: block;" width="18.6228" height="21.4191" viewBox="0 0 18.6228 21.4191" fill="none" xmlns="http://www.w3.org/2000/svg">
<g id="Group">
<path id="Vector" d="M4.75766 7.76509C4.75765 6.65276 5.35163 5.62493 6.31585 5.06878C6.44673 4.99328 6.582 4.92896 6.72001 4.87395L6.55728 2.82384L5.41396 0.478278C3.43253 1.20685 1.82978 2.71256 0.986459 4.65463C0.351823 6.11613 7.344e-06 7.72864 0 9.42325C0 10.7998 0.226912 12.0995 0.634149 13.3018L2.90543 13.6066L4.75766 13.0483V7.76509V7.76509Z" fill="url(#paint0_linear_0_717)"/>
<path id="Vector_2" d="M6.72003 4.87395C7.59872 4.52379 8.59891 4.58812 9.43222 5.06877L9.51534 5.11671L16.1869 8.96488C16.6549 9.23483 16.6123 9.50045 16.0834 9.61106L16.4682 9.53059C16.9747 9.42469 17.4373 9.16589 17.7912 8.78875C18.3995 8.1403 18.6228 7.35795 18.6228 6.67901C18.6228 5.5667 18.0289 4.53888 17.0647 3.98272L11.9558 1.03588C10.0451 -0.0661767 7.75452 -0.301174 5.65958 0.389939C5.5767 0.417273 5.49558 0.448269 5.41398 0.478276L6.72003 4.87395Z" fill="url(#paint1_linear_0_717)"/>
<path id="Vector_3" d="M14.4917 21.1584C14.4933 21.158 14.493 21.1565 14.4913 21.1569C14.1565 21.2254 13.7754 21.289 13.3562 21.3357C11.1661 21.58 8.97564 20.8799 7.33404 19.4111C5.69246 17.9422 4.75767 15.8438 4.75767 13.6422L4.75767 13.0483L0.63416 13.3018C2.54917 18.9558 8.52671 22.4155 14.4684 21.1632C14.4712 21.1626 14.4812 21.1607 14.4917 21.1584Z" fill="url(#paint2_linear_0_717)"/>
</g>
<defs>
<linearGradient id="paint0_linear_0_717" x1="4.0229" y1="4.26732" x2="1.7929" y2="12.649" gradientUnits="userSpaceOnUse">
<stop stop-color="#1C64F2"/>
<stop offset="1" stop-color="#0092FF"/>
</linearGradient>
<linearGradient id="paint1_linear_0_717" x1="15.4073" y1="3.86866" x2="7.25826" y2="5.89761" gradientUnits="userSpaceOnUse">
<stop stop-color="#1724C9"/>
<stop offset="1" stop-color="#1C64F2"/>
</linearGradient>
<linearGradient id="paint2_linear_0_717" x1="4.80507" y1="13.4366" x2="9.9994" y2="21.2501" gradientUnits="userSpaceOnUse">
<stop stop-color="#0092FF"/>
<stop offset="1" stop-color="#45B2FF"/>
</linearGradient>
</defs>
</svg>
